<svg version="1.1" id="Layer_1" xmlns="http://www.w3.org/2000/svg" xmlns:xlink="http://www.w3.org/1999/xlink" x="0px" y="0px"
	 width="100%" viewBox="0 0 2000 2000" enable-background="new 0 0 2000 2000" xml:space="preserve">
<path fill="#FFFFFF" opacity="1.000000" stroke="none" 
	d="
M1097.000000,2001.000000 
	C731.333313,2001.000000 366.166656,2001.000000 1.000000,2001.000000 
	C1.000000,1334.333374 1.000000,667.666687 1.000000,1.000000 
	C667.666687,1.000000 1334.333374,1.000000 2001.000000,1.000000 
	C2001.000000,667.666687 2001.000000,1334.333374 2001.000000,2001.000000 
	C1699.833374,2001.000000 1398.666626,2001.000000 1097.000000,2001.000000 
M828.507507,153.972733 
	C828.309937,154.227478 828.112427,154.482224 827.208618,154.844925 
	C823.311279,157.272766 819.500671,159.855362 815.499084,162.097031 
	C806.488770,167.144608 797.305481,171.886261 788.340149,177.010468 
	C779.945190,181.808716 771.844177,187.123322 763.426697,191.879456 
	C751.660889,198.527420 739.617065,204.685181 727.882629,211.386230 
	C713.203735,219.768784 698.820557,228.670380 684.119934,237.013382 
	C669.602783,245.252151 654.800964,252.987564 640.214050,261.105591 
	C628.358337,267.703613 616.624390,274.521027 604.857056,281.277161 
	C589.888489,289.871277 574.919983,298.465942 559.989868,307.126617 
	C545.220886,315.693817 530.549438,324.429871 515.743225,332.931732 
	C502.134491,340.746002 488.363678,348.277771 474.740784,356.067780 
	C466.450073,360.808624 458.338409,365.861328 450.085785,370.670044 
	C436.040436,378.854095 421.971771,386.998840 407.866913,395.079742 
	C396.024597,401.864410 384.080566,408.471741 372.247467,415.272217 
	C359.199738,422.770752 346.290985,430.512512 333.205322,437.943481 
	C317.419434,446.907745 301.465179,455.575439 285.673370,464.529480 
	C276.253937,469.870300 267.067719,475.621552 257.666748,480.996033 
	C244.395706,488.583008 230.966904,495.894287 217.707016,503.500366 
	C198.642654,514.436035 179.691620,525.569214 160.640854,536.528809 
	C156.340912,539.002502 153.218460,541.938721 153.221970,547.379578 
	C153.227005,555.182922 153.023575,562.988708 152.776138,570.789246 
	C152.139053,590.873352 151.288956,610.951721 150.803543,631.039124 
	C150.538223,642.018860 150.840469,653.012207 150.640182,664.910034 
	C150.607635,782.615051 150.574387,900.320129 150.554413,1018.025146 
	C150.554245,1019.013123 150.733292,1020.001099 150.599655,1021.904541 
	C150.583435,1128.724243 150.414581,1235.544189 150.628662,1342.363403 
	C150.710403,1383.152954 151.679901,1423.940430 152.214706,1464.729248 
	C152.281235,1469.802368 154.266251,1473.548828 158.796082,1476.102417 
	C164.473923,1479.303223 169.974182,1482.817749 175.575592,1486.155884 
	C184.901581,1491.713745 194.202499,1497.315674 203.597504,1502.754883 
	C212.024429,1507.633667 220.595062,1512.263672 229.040619,1517.110840 
	C233.308624,1519.560547 237.354950,1522.403076 241.665329,1524.769531 
	C244.221100,1526.172607 247.286774,1526.668579 249.793045,1528.136108 
	C258.881195,1533.457520 267.738800,1539.174316 276.851166,1544.452148 
	C293.086517,1553.855957 309.463562,1563.014526 325.743622,1572.341553 
	C336.470459,1578.486938 347.080933,1584.836548 357.837341,1590.928955 
	C366.254974,1595.696655 374.898621,1600.066895 383.291656,1604.875854 
	C391.659760,1609.670654 399.743530,1614.963013 408.128571,1619.726196 
	C418.389496,1625.554688 428.916626,1630.914551 439.179443,1636.739868 
	C453.663422,1644.961182 467.944702,1653.539795 482.438446,1661.743530 
	C492.580414,1667.484131 502.944580,1672.831421 513.186890,1678.395996 
	C519.830994,1682.005615 526.522644,1685.540161 533.033875,1689.378174 
	C541.239380,1694.214844 549.172241,1699.518799 557.430725,1704.258545 
	C563.971741,1708.012573 570.980164,1710.954224 577.507385,1714.729858 
	C589.102173,1721.436157 600.359131,1728.730103 611.995850,1735.359741 
	C627.636292,1744.270264 643.581482,1752.644897 659.248413,1761.510254 
	C672.446411,1768.978516 685.425720,1776.832886 698.518127,1784.488525 
	C705.287781,1788.446899 712.055847,1792.410889 718.894043,1796.248779 
	C723.995178,1799.111572 729.338074,1801.560425 734.335266,1804.586792 
	C739.709351,1807.841431 744.660645,1811.798828 750.059326,1815.007324 
	C756.961975,1819.109619 764.151123,1822.727295 771.174744,1826.629517 
	C782.849304,1833.116089 794.458069,1839.721802 806.159241,1846.159790 
	C812.312988,1849.545410 818.737732,1852.452271 824.797791,1855.990479 
	C832.022949,1860.209106 838.914612,1864.995239 846.086365,1869.310059 
	C853.650574,1873.860840 861.401184,1878.100342 869.021851,1882.558960 
	C877.352966,1887.433105 885.616577,1892.422485 893.932129,1897.323364 
	C898.935364,1900.271973 904.030273,1903.067017 908.997375,1906.074219 
	C917.030701,1910.937500 924.894104,1916.088501 933.013977,1920.799805 
	C940.520508,1925.155029 948.413269,1928.849487 955.878967,1933.269165 
	C967.567932,1940.188843 978.867981,1947.776733 990.664429,1954.499512 
	C998.664673,1959.058716 1007.564026,1962.648193 1016.670715,1958.240479 
	C1026.882568,1953.298218 1036.611694,1947.343872 1046.465088,1941.680786 
	C1055.356567,1936.570557 1064.129883,1931.254883 1072.959961,1926.037842 
	C1079.119629,1922.398560 1085.287842,1918.773682 1091.451660,1915.141479 
	C1098.890259,1910.757935 1106.266602,1906.264282 1113.782227,1902.017090 
	C1122.916138,1896.855347 1132.244385,1892.035767 1141.346313,1886.819946 
	C1150.713989,1881.451904 1159.839111,1875.659912 1169.217773,1870.312256 
	C1172.862549,1868.234009 1177.179565,1867.293457 1180.719482,1865.081299 
	C1187.939453,1860.569214 1194.579956,1855.095459 1201.937744,1850.846436 
	C1211.359741,1845.405151 1221.385620,1841.019043 1230.907715,1835.738892 
	C1240.898804,1830.198608 1250.508179,1823.973022 1260.456665,1818.351807 
	C1270.566040,1812.639404 1280.981323,1807.468018 1291.090820,1801.755493 
	C1305.844971,1793.418335 1320.446045,1784.810059 1335.111328,1776.315674 
	C1348.470581,1768.578003 1361.807129,1760.801147 1375.193970,1753.111450 
	C1386.171753,1746.805664 1397.206787,1740.599121 1408.219604,1734.354614 
	C1422.516113,1726.248047 1436.817383,1718.150024 1451.114258,1710.044189 
	C1465.551147,1701.858398 1480.023926,1693.734863 1494.395630,1685.436401 
	C1498.563354,1683.030151 1502.271484,1679.813354 1506.482300,1677.499512 
	C1514.887939,1672.880249 1523.623901,1668.857544 1531.987427,1664.167480 
	C1542.196045,1658.442871 1552.049072,1652.084229 1562.260132,1646.364380 
	C1576.190918,1638.560913 1590.421753,1631.291626 1604.327881,1623.445801 
	C1620.919556,1614.084717 1637.242554,1604.248657 1653.794434,1594.815674 
	C1671.614746,1584.659912 1689.585571,1574.768311 1707.447510,1564.684692 
	C1713.022339,1561.537231 1718.441772,1558.115723 1723.957886,1554.863037 
	C1736.958984,1547.197021 1749.959473,1539.529663 1762.992188,1531.917603 
	C1770.383667,1527.600342 1777.837769,1523.390503 1785.264282,1519.133423 
	C1796.626221,1512.620483 1807.972046,1506.078857 1819.356689,1499.605835 
	C1828.327148,1494.505249 1837.343018,1489.484619 1846.343872,1484.437866 
	C1851.519287,1481.535889 1856.862793,1478.891235 1861.797974,1475.627686 
	C1863.447510,1474.536621 1864.939331,1471.920776 1865.018921,1469.942383 
	C1865.754883,1451.675293 1866.165283,1433.395020 1866.850098,1414.306030 
	C1866.859985,1277.536133 1866.870117,1140.766113 1866.870850,1003.996216 
	C1866.870850,1003.002625 1866.741211,1002.009033 1866.874756,1000.096252 
	C1866.887695,899.502441 1867.060059,798.908203 1866.845703,698.314880 
	C1866.739624,648.522461 1865.892212,598.731750 1865.475342,548.939453 
	C1865.437866,544.455505 1863.762573,541.443604 1859.888672,539.210327 
	C1843.102539,529.533264 1826.409424,519.695129 1809.648193,509.974518 
	C1788.730835,497.843536 1767.797241,485.739807 1746.836914,473.683014 
	C1733.327881,465.912384 1719.750732,458.260071 1706.218384,450.529785 
	C1698.102783,445.893799 1689.989990,441.252319 1681.919800,436.538208 
	C1667.625610,428.188477 1653.386353,419.745026 1639.084106,411.409241 
	C1626.267090,403.939026 1613.396606,396.560242 1600.549072,389.142334 
	C1591.569702,383.957825 1582.592896,378.768799 1573.608276,373.593353 
	C1560.927856,366.289001 1548.228149,359.018127 1535.562744,351.687897 
	C1528.755493,347.748169 1522.029175,343.668152 1515.217285,339.736694 
	C1509.127319,336.221863 1502.936890,332.881165 1496.849487,329.361938 
	C1485.882812,323.021790 1475.021484,316.496948 1464.002930,310.248901 
	C1450.469482,302.574799 1436.746094,295.234497 1423.249390,287.497437 
	C1415.537109,283.076447 1408.224487,277.960541 1400.532227,273.502075 
	C1389.307617,266.996307 1377.848633,260.896362 1366.588257,254.450867 
	C1348.210571,243.931305 1329.917236,233.264374 1311.579468,222.674835 
	C1293.241211,212.085007 1274.909058,201.484695 1256.542358,190.944336 
	C1242.715088,183.009109 1228.849487,175.140274 1214.977905,167.282684 
	C1206.726562,162.608704 1198.430420,158.013733 1189.842285,152.781586 
	C1181.262085,147.887863 1172.707153,142.949249 1164.093750,138.114853 
	C1157.477295,134.401260 1150.738159,130.904861 1144.140869,127.158134 
	C1134.483398,121.673424 1124.895508,116.066071 1115.293457,110.484291 
	C1099.311523,101.193916 1083.394043,91.791260 1067.350708,82.608154 
	C1054.255371,75.112518 1041.255615,67.386650 1027.758667,60.677841 
	C1018.340881,55.996651 1008.054810,53.525784 997.733398,58.681980 
	C989.427551,62.831287 981.217651,67.180931 973.056763,71.610474 
	C963.389771,76.857468 953.721191,82.115120 944.231506,87.672523 
	C927.194946,97.649628 910.366821,107.983391 893.309509,117.924370 
	C878.395020,126.616508 863.269836,134.946564 848.274414,143.500870 
	C845.140747,145.288528 842.167542,147.357666 838.336060,149.305923 
	C837.776917,149.835495 837.217773,150.365067 836.134827,150.852921 
	C835.760254,151.179031 835.385681,151.505127 834.267212,151.897980 
	C832.514648,152.602249 830.762024,153.306519 828.507507,153.972733 
z"/>
<path fill="#0619C0" opacity="1.000000" stroke="none" 
	d="
M1866.670288,1415.118652 
	C1866.165283,1433.395020 1865.754883,1451.675293 1865.018921,1469.942383 
	C1864.939331,1471.920776 1863.447510,1474.536621 1861.797974,1475.627686 
	C1856.862793,1478.891235 1851.519287,1481.535889 1846.343872,1484.437866 
	C1837.343018,1489.484619 1828.327148,1494.505249 1819.356689,1499.605835 
	C1807.972046,1506.078857 1796.626221,1512.620483 1785.264282,1519.133423 
	C1777.837769,1523.390503 1770.383667,1527.600342 1762.992188,1531.917603 
	C1749.959473,1539.529663 1736.958984,1547.197021 1723.957886,1554.863037 
	C1718.441772,1558.115723 1713.022339,1561.537231 1707.447510,1564.684692 
	C1689.585571,1574.768311 1671.614746,1584.659912 1653.794434,1594.815674 
	C1637.242554,1604.248657 1620.919556,1614.084717 1604.327881,1623.445801 
	C1590.421753,1631.291626 1576.190918,1638.560913 1562.260132,1646.364380 
	C1552.049072,1652.084229 1542.196045,1658.442871 1531.987427,1664.167480 
	C1523.623901,1668.857544 1514.887939,1672.880249 1506.482300,1677.499512 
	C1502.271484,1679.813354 1498.563354,1683.030151 1494.395630,1685.436401 
	C1480.023926,1693.734863 1465.551147,1701.858398 1451.114258,1710.044189 
	C1436.817383,1718.150024 1422.516113,1726.248047 1408.219604,1734.354614 
	C1397.206787,1740.599121 1386.171753,1746.805664 1375.193970,1753.111450 
	C1361.807129,1760.801147 1348.470581,1768.578003 1335.111328,1776.315674 
	C1320.446045,1784.810059 1305.844971,1793.418335 1291.090820,1801.755493 
	C1280.981323,1807.468018 1270.566040,1812.639404 1260.456665,1818.351807 
	C1250.508179,1823.973022 1240.898804,1830.198608 1230.907715,1835.738892 
	C1221.385620,1841.019043 1211.359741,1845.405151 1201.937744,1850.846436 
	C1194.579956,1855.095459 1187.939453,1860.569214 1180.719482,1865.081299 
	C1177.179565,1867.293457 1172.862549,1868.234009 1169.217773,1870.312256 
	C1159.839111,1875.659912 1150.713989,1881.451904 1141.346313,1886.819946 
	C1132.244385,1892.035767 1122.916138,1896.855347 1113.782227,1902.017090 
	C1106.266602,1906.264282 1098.890259,1910.757935 1091.451660,1915.141479 
	C1085.287842,1918.773682 1079.119629,1922.398560 1072.959961,1926.037842 
	C1064.129883,1931.254883 1055.356567,1936.570557 1046.465088,1941.680786 
	C1036.611694,1947.343872 1026.882568,1953.298218 1016.670715,1958.240479 
	C1007.564026,1962.648193 998.664673,1959.058716 990.664429,1954.499512 
	C978.867981,1947.776733 967.567932,1940.188843 955.878967,1933.269165 
	C948.413269,1928.849487 940.520508,1925.155029 933.013977,1920.799805 
	C924.894104,1916.088501 917.030701,1910.937500 908.997375,1906.074219 
	C904.030273,1903.067017 898.935364,1900.271973 893.932129,1897.323364 
	C885.616577,1892.422485 877.352966,1887.433105 869.021851,1882.558960 
	C861.401184,1878.100342 853.650574,1873.860840 846.086365,1869.310059 
	C838.914612,1864.995239 832.022949,1860.209106 824.797791,1855.990479 
	C818.737732,1852.452271 812.312988,1849.545410 806.159241,1846.159790 
	C794.458069,1839.721802 782.849304,1833.116089 771.174744,1826.629517 
	C764.151123,1822.727295 756.961975,1819.109619 750.059326,1815.007324 
	C744.660645,1811.798828 739.709351,1807.841431 734.335266,1804.586792 
	C729.338074,1801.560425 723.995178,1799.111572 718.894043,1796.248779 
	C712.055847,1792.410889 705.287781,1788.446899 698.518127,1784.488525 
	C685.425720,1776.832886 672.446411,1768.978516 659.248413,1761.510254 
	C643.581482,1752.644897 627.636292,1744.270264 611.995850,1735.359741 
	C600.359131,1728.730103 589.102173,1721.436157 577.507385,1714.729858 
	C570.980164,1710.954224 563.971741,1708.012573 557.430725,1704.258545 
	C549.172241,1699.518799 541.239380,1694.214844 533.033875,1689.378174 
	C526.522644,1685.540161 519.830994,1682.005615 513.186890,1678.395996 
	C502.944580,1672.831421 492.580414,1667.484131 482.438446,1661.743530 
	C467.944702,1653.539795 453.663422,1644.961182 439.179443,1636.739868 
	C428.916626,1630.914551 418.389496,1625.554688 408.128571,1619.726196 
	C399.743530,1614.963013 391.659760,1609.670654 383.291656,1604.875854 
	C374.898621,1600.066895 366.254974,1595.696655 357.837341,1590.928955 
	C347.080933,1584.836548 336.470459,1578.486938 325.743622,1572.341553 
	C309.463562,1563.014526 293.086517,1553.855957 276.851166,1544.452148 
	C267.738800,1539.174316 258.881195,1533.457520 249.793045,1528.136108 
	C247.286774,1526.668579 244.221100,1526.172607 241.665329,1524.769531 
	C237.354950,1522.403076 233.308624,1519.560547 229.040619,1517.110840 
	C220.595062,1512.263672 212.024429,1507.633667 203.597504,1502.754883 
	C194.202499,1497.315674 184.901581,1491.713745 175.575592,1486.155884 
	C169.974182,1482.817749 164.473923,1479.303223 158.796082,1476.102417 
	C154.266251,1473.548828 152.281235,1469.802368 152.214706,1464.729248 
	C151.679901,1423.940430 150.710403,1383.152954 150.628662,1342.363403 
	C150.414581,1235.544189 150.583435,1128.724243 151.176575,1021.448547 
	C157.345398,1021.591675 163.278381,1018.629333 168.569687,1022.604614 
	C168.855408,1022.819275 169.512497,1022.503418 169.997879,1022.493958 
	C178.624542,1022.325134 187.251053,1022.101501 195.878510,1022.052612 
	C197.829300,1022.041565 199.790863,1022.957031 201.734985,1022.911682 
	C210.122253,1022.716187 218.505600,1022.049500 226.889023,1022.071472 
	C236.595230,1022.096924 246.299011,1022.879761 256.005768,1022.925110 
	C263.116608,1022.958374 270.230194,1022.082031 277.343170,1022.072144 
	C284.122284,1022.062805 290.899170,1022.787231 297.682617,1022.940186 
	C305.517548,1023.116882 313.358765,1023.057068 321.196838,1023.018738 
	C323.194275,1023.008972 325.192322,1022.712830 327.186340,1022.511414 
	C330.943634,1022.131897 334.708099,1021.337952 338.451233,1021.433655 
	C342.644348,1021.540894 346.817139,1022.443481 350.999939,1023.468628 
	C351.000702,1042.311035 350.952667,1060.685181 351.081390,1079.057983 
	C351.092957,1080.707520 352.248169,1082.349121 352.969543,1084.324951 
	C353.002258,1085.105469 352.937653,1085.555420 352.504150,1086.097168 
	C350.648376,1088.955078 349.522644,1091.686890 352.973999,1094.415527 
	C353.007172,1096.559448 352.941101,1098.282227 352.636902,1100.023682 
	C352.149414,1100.196289 351.900116,1100.350342 351.650818,1100.504272 
	C352.058899,1100.667847 352.466949,1100.831299 352.972168,1101.325195 
	C353.004486,1102.105591 352.939636,1102.555542 352.488342,1103.107910 
	C351.734772,1104.397583 351.048004,1105.584473 351.046570,1106.771973 
	C350.991882,1151.857422 350.984283,1196.942749 351.078705,1242.028076 
	C351.081482,1243.351440 352.248962,1244.672363 352.972778,1246.454346 
	C354.008606,1279.867188 354.917206,1312.821289 355.916290,1345.772461 
	C356.043518,1349.968628 356.821838,1353.978516 360.938873,1356.501587 
	C369.436310,1361.709229 377.761719,1367.200928 386.311646,1372.318970 
	C396.585266,1378.468628 407.045258,1384.306030 417.370880,1390.370239 
	C421.584412,1392.844604 425.575653,1395.700195 429.808990,1398.137451 
	C442.685791,1405.551147 455.649078,1412.814453 468.545807,1420.193726 
	C484.806885,1429.498169 501.084869,1438.774658 517.263123,1448.221558 
	C531.125977,1456.316284 544.831970,1464.679321 558.657471,1472.838745 
	C569.829102,1479.431885 581.146851,1485.779419 592.269348,1492.453247 
	C604.152161,1499.583252 615.806519,1507.094482 627.700562,1514.205444 
	C638.980591,1520.949341 650.425537,1527.418457 661.827087,1533.957886 
	C676.685181,1542.479614 691.595154,1550.911011 706.437927,1559.459351 
	C716.113098,1565.031372 725.745422,1570.680420 735.327637,1576.410645 
	C742.909729,1580.944702 750.264343,1585.869873 757.942505,1590.229370 
	C766.580566,1595.133789 775.413208,1599.706177 784.262817,1604.224121 
	C793.403076,1608.890381 801.126648,1616.310913 811.942078,1617.801880 
	C816.136353,1618.380249 818.684692,1617.299683 819.162415,1613.364258 
	C819.667664,1609.202148 819.196289,1604.929443 819.286072,1600.707886 
	C819.774109,1577.767700 820.725708,1554.828613 820.749573,1531.888306 
	C820.890503,1396.400635 820.819153,1260.912720 820.819153,1125.424805 
	C820.819153,1123.369995 820.819153,1121.315063 820.819153,1118.251343 
	C837.297546,1127.596069 852.747437,1136.223267 868.062988,1145.082886 
	C881.523865,1152.869751 894.790894,1160.991211 908.227905,1168.819946 
	C915.993713,1173.344482 923.963257,1177.517944 931.777161,1181.961670 
	C953.782227,1194.475708 975.758179,1207.041016 997.737549,1219.600220 
	C1007.124695,1224.964111 1016.028748,1225.455933 1025.206787,1218.529663 
	C1031.176880,1214.024414 1037.993530,1210.614258 1044.540039,1206.906250 
	C1054.583252,1201.217773 1064.770264,1195.782837 1074.806274,1190.081787 
	C1089.528564,1181.718506 1104.169922,1173.212402 1118.848999,1164.772827 
	C1126.118164,1160.593628 1133.384766,1156.409668 1140.670166,1152.259033 
	C1150.335571,1146.752441 1160.039917,1141.313721 1169.686401,1135.774414 
	C1176.483276,1131.871460 1183.197876,1127.825439 1189.976440,1123.890259 
	C1194.046997,1121.527100 1198.169922,1119.254150 1203.108643,1116.467041 
	C1203.108643,1119.397461 1203.108643,1120.555542 1203.108643,1121.713501 
	C1203.108398,1243.869263 1203.077759,1366.025024 1203.125244,1488.180786 
	C1203.140991,1528.488037 1203.399048,1568.795288 1203.427979,1609.102539 
	C1203.431396,1613.863770 1204.472412,1617.726562 1209.218872,1619.576172 
	C1210.305542,1619.999512 1212.015381,1620.029907 1212.934204,1619.446777 
	C1215.486328,1617.827637 1217.613647,1615.527832 1220.191162,1613.961548 
	C1234.488770,1605.274414 1248.777466,1596.565308 1263.247925,1588.171631 
	C1279.596313,1578.688599 1296.186279,1569.622559 1312.571777,1560.202393 
	C1324.268677,1553.478149 1335.729492,1546.342773 1347.436646,1539.636963 
	C1353.836060,1535.971436 1360.715698,1533.132568 1367.051514,1529.369873 
	C1382.040039,1520.468506 1396.735962,1511.074097 1411.730835,1502.183716 
	C1428.716553,1492.112915 1445.933594,1482.433228 1462.987305,1472.475952 
	C1482.721680,1460.953491 1502.382324,1449.305176 1522.085693,1437.729858 
	C1531.856567,1431.989502 1541.613892,1426.224609 1551.445923,1420.590698 
	C1561.974976,1414.557251 1572.640747,1408.761475 1583.142212,1402.680908 
	C1591.958618,1397.575928 1600.591187,1392.154419 1609.364624,1386.973755 
	C1624.521362,1378.023804 1639.877075,1369.396118 1654.789185,1360.057983 
	C1658.100342,1357.984375 1661.494751,1353.784546 1662.108521,1350.106323 
	C1663.654541,1340.841919 1663.857788,1331.324341 1664.197021,1321.893921 
	C1664.837280,1304.086670 1665.566284,1286.270020 1665.606445,1268.455811 
	C1665.787476,1188.296875 1665.737915,1108.137207 1665.784180,1027.977905 
	C1665.785278,1025.985352 1665.930786,1023.992859 1666.382935,1021.958984 
	C1669.887573,1022.278503 1673.023682,1022.983704 1676.147827,1022.934204 
	C1684.875488,1022.795898 1693.601440,1022.019226 1702.321655,1022.109985 
	C1710.964722,1022.199951 1719.595947,1023.340942 1728.239868,1023.456360 
	C1735.262207,1023.550171 1742.293091,1022.587402 1749.325195,1022.499268 
	C1756.522217,1022.408997 1763.725220,1022.932068 1770.926025,1022.948120 
	C1774.381470,1022.955811 1777.834351,1022.239807 1781.295410,1022.163208 
	C1786.028320,1022.058655 1790.767700,1022.252014 1795.504395,1022.315796 
	C1803.863892,1022.428223 1812.249878,1022.163513 1820.575806,1022.750549 
	C1829.924316,1023.409668 1839.194214,1024.369019 1848.301025,1021.248169 
	C1848.422607,1021.206543 1848.604492,1021.388672 1848.764404,1021.404480 
	C1854.175781,1021.940979 1859.588013,1022.469971 1865.001465,1023.468628 
	C1865.003418,1025.103638 1865.004150,1026.270142 1865.004150,1027.436523 
	C1865.002808,1154.409302 1864.992798,1281.382202 1865.069702,1408.354980 
	C1865.071045,1410.609741 1866.113525,1412.864136 1866.670288,1415.118652 
z"/>
<path fill="#0619C0" opacity="1.000000" stroke="none" 
	d="
M1190.154419,153.383209 
	C1198.430420,158.013733 1206.726562,162.608704 1214.977905,167.282684 
	C1228.849487,175.140274 1242.715088,183.009109 1256.542358,190.944336 
	C1274.909058,201.484695 1293.241211,212.085007 1311.579468,222.674835 
	C1329.917236,233.264374 1348.210571,243.931305 1366.588257,254.450867 
	C1377.848633,260.896362 1389.307617,266.996307 1400.532227,273.502075 
	C1408.224487,277.960541 1415.537109,283.076447 1423.249390,287.497437 
	C1436.746094,295.234497 1450.469482,302.574799 1464.002930,310.248901 
	C1475.021484,316.496948 1485.882812,323.021790 1496.849487,329.361938 
	C1502.936890,332.881165 1509.127319,336.221863 1515.217285,339.736694 
	C1522.029175,343.668152 1528.755493,347.748169 1535.562744,351.687897 
	C1548.228149,359.018127 1560.927856,366.289001 1573.608276,373.593353 
	C1582.592896,378.768799 1591.569702,383.957825 1600.549072,389.142334 
	C1613.396606,396.560242 1626.267090,403.939026 1639.084106,411.409241 
	C1653.386353,419.745026 1667.625610,428.188477 1681.919800,436.538208 
	C1689.989990,441.252319 1698.102783,445.893799 1706.218384,450.529785 
	C1719.750732,458.260071 1733.327881,465.912384 1746.836914,473.683014 
	C1767.797241,485.739807 1788.730835,497.843536 1809.648193,509.974518 
	C1826.409424,519.695129 1843.102539,529.533264 1859.888672,539.210327 
	C1863.762573,541.443604 1865.437866,544.455505 1865.475342,548.939453 
	C1865.892212,598.731750 1866.739624,648.522461 1866.845703,698.314880 
	C1867.060059,798.908203 1866.887695,899.502441 1866.495605,1000.560547 
	C1865.745850,1001.018250 1865.375366,1001.011597 1865.002441,1000.535645 
	C1865.000000,887.515198 1865.000000,774.963928 1865.000000,663.000000 
	C1859.309570,663.000000 1854.525757,663.109192 1849.749268,662.971497 
	C1844.186768,662.811096 1838.618042,662.058960 1833.074341,662.241028 
	C1824.993164,662.506531 1816.935913,663.804382 1808.860962,663.882385 
	C1798.281616,663.984619 1787.696533,663.160095 1777.110718,663.051941 
	C1769.208008,662.971191 1761.299927,663.558228 1753.394531,663.549255 
	C1744.179199,663.538757 1734.963135,663.014404 1725.749146,663.061035 
	C1716.297974,663.108887 1706.850586,663.683411 1697.398560,663.835083 
	C1685.153564,664.031677 1672.905396,664.037842 1660.433838,663.885254 
	C1658.750122,662.334900 1657.461914,660.733032 1655.803345,659.765869 
	C1648.005981,655.219177 1640.100708,650.858154 1632.246094,646.409241 
	C1621.112183,640.102844 1609.968750,633.812683 1598.865234,627.452881 
	C1578.908325,616.022217 1558.983765,604.535217 1539.034912,593.090393 
	C1523.662354,584.270935 1508.220459,575.570862 1492.906006,566.651733 
	C1476.564941,557.134766 1460.383301,547.344116 1444.046753,537.819336 
	C1429.200317,529.163208 1414.223755,520.730896 1399.332520,512.151123 
	C1376.531860,499.014282 1353.756470,485.833618 1330.968018,472.675537 
	C1318.136963,465.266846 1305.256592,457.942047 1292.483398,450.434906 
	C1284.113403,445.515594 1276.008545,440.139984 1267.583618,435.320526 
	C1253.771973,427.419495 1239.715820,419.945618 1225.915527,412.025452 
	C1214.253784,405.332642 1202.870728,398.155731 1191.250610,391.388489 
	C1179.322266,384.441772 1167.237915,377.763306 1155.254517,370.910522 
	C1141.768188,363.198395 1128.332153,355.398712 1114.847046,347.684662 
	C1108.135132,343.845154 1101.300171,340.217682 1094.633789,336.302277 
	C1087.303833,331.997192 1080.156738,327.381439 1072.833252,323.065125 
	C1064.235596,317.997833 1055.576660,313.030853 1046.866699,308.158936 
	C1035.502441,301.802368 1025.475830,292.046722 1011.131409,292.977051 
	C1004.991638,293.375214 998.242188,293.380096 992.940125,295.964630 
	C978.151550,303.173645 963.875427,311.464264 949.581726,319.650421 
	C931.264709,330.140717 913.220337,341.107697 894.887573,351.569763 
	C876.553772,362.032379 857.946167,372.014252 839.577515,382.416931 
	C825.307922,390.498169 811.265442,398.979523 797.040833,407.141541 
	C782.704834,415.367462 768.231567,423.353912 753.884033,431.559906 
	C722.574524,449.467224 691.285767,467.410797 660.029175,485.410217 
	C638.554993,497.776367 617.127869,510.224640 595.722900,522.710388 
	C586.599243,528.032288 577.643433,533.642395 568.507629,538.942871 
	C557.760681,545.178101 546.878845,551.180420 536.096680,557.355591 
	C524.557068,563.964539 513.082153,570.686401 501.548798,577.306458 
	C483.058838,587.919495 464.530579,598.465698 446.046173,609.088318 
	C438.311035,613.533508 430.615051,618.049072 422.958710,622.628662 
	C414.636505,627.606567 406.521088,632.946167 398.065002,637.680603 
	C384.036011,645.535278 369.196259,652.043823 356.645538,663.029541 
	C287.744568,663.904175 219.307297,662.205017 150.886749,663.999451 
	C150.840469,653.012207 150.538223,642.018860 150.803543,631.039124 
	C151.288956,610.951721 152.139053,590.873352 152.776138,570.789246 
	C153.023575,562.988708 153.227005,555.182922 153.221970,547.379578 
	C153.218460,541.938721 156.340912,539.002502 160.640854,536.528809 
	C179.691620,525.569214 198.642654,514.436035 217.707016,503.500366 
	C230.966904,495.894287 244.395706,488.583008 257.666748,480.996033 
	C267.067719,475.621552 276.253937,469.870300 285.673370,464.529480 
	C301.465179,455.575439 317.419434,446.907745 333.205322,437.943481 
	C346.290985,430.512512 359.199738,422.770752 372.247467,415.272217 
	C384.080566,408.471741 396.024597,401.864410 407.866913,395.079742 
	C421.971771,386.998840 436.040436,378.854095 450.085785,370.670044 
	C458.338409,365.861328 466.450073,360.808624 474.740784,356.067780 
	C488.363678,348.277771 502.134491,340.746002 515.743225,332.931732 
	C530.549438,324.429871 545.220886,315.693817 559.989868,307.126617 
	C574.919983,298.465942 589.888489,289.871277 604.857056,281.277161 
	C616.624390,274.521027 628.358337,267.703613 640.214050,261.105591 
	C654.800964,252.987564 669.602783,245.252151 684.119934,237.013382 
	C698.820557,228.670380 713.203735,219.768784 727.882629,211.386230 
	C739.617065,204.685181 751.660889,198.527420 763.426697,191.879456 
	C771.844177,187.123322 779.945190,181.808716 788.340149,177.010468 
	C797.305481,171.886261 806.488770,167.144608 815.499084,162.097031 
	C819.500671,159.855362 823.311279,157.272766 827.594849,155.202194 
	C829.132141,156.282379 830.253174,157.548874 831.440674,157.614548 
	C833.882874,157.749695 836.377319,156.926849 838.820801,157.056015 
	C848.025818,157.542603 857.211243,158.489426 866.419434,158.791443 
	C872.000671,158.974487 877.622559,158.428543 883.202576,157.940491 
	C886.431885,157.658051 889.684814,156.163559 892.356934,159.430893 
	C892.639221,159.776154 893.882141,159.313614 894.681702,159.261505 
	C906.301575,158.503983 917.913391,157.514297 929.545593,157.095978 
	C935.755371,156.872650 942.002380,157.926300 948.229675,157.890442 
	C957.709778,157.835846 967.186584,157.307281 976.667114,157.070511 
	C977.576721,157.047791 978.486511,157.724182 979.424011,157.970032 
	C981.021423,158.388977 982.673096,159.141022 984.245544,159.020020 
	C990.307190,158.553513 996.334045,157.440918 1002.396973,157.228577 
	C1012.310547,156.881363 1022.244202,156.907715 1032.165649,157.045776 
	C1040.104858,157.156235 1048.036255,157.758133 1055.975830,157.948303 
	C1058.595215,158.011047 1061.227295,157.448349 1063.857300,157.214447 
	C1064.843994,157.126678 1066.363892,156.732605 1066.751709,157.206284 
	C1070.091309,161.283875 1074.395264,158.898041 1078.181885,158.890259 
	C1084.558228,158.877151 1090.927856,158.035782 1097.309814,157.797729 
	C1106.203735,157.466019 1115.107178,157.193878 1124.005371,157.222626 
	C1132.302368,157.249420 1140.601196,157.956604 1148.892578,157.848969 
	C1152.409424,157.803284 1155.999634,155.588715 1158.860229,159.532761 
	C1159.139404,159.917450 1160.677490,159.345840 1161.635376,159.288055 
	C1168.964600,158.846069 1176.293579,158.399841 1183.625244,158.001389 
	C1186.802979,157.828674 1189.695312,157.352951 1190.154419,153.383209 
z"/>
<path fill="#0A22C7" opacity="1.000000" stroke="none" 
	d="
M150.763458,664.454712 
	C219.307297,662.205017 287.744568,663.904175 356.572754,663.433838 
	C356.610260,665.112976 355.980072,666.361206 355.919739,667.636353 
	C355.353821,679.601379 354.809784,691.568420 354.406769,703.539917 
	C353.819641,720.982178 353.354340,738.428589 352.394836,756.052795 
	C351.635437,758.134888 351.042053,760.037170 351.040985,761.939880 
	C350.995148,843.293274 351.002045,924.646606 351.001892,1006.467590 
	C351.000458,1012.290100 350.999603,1017.645081 350.998779,1023.000000 
	C346.817139,1022.443481 342.644348,1021.540894 338.451233,1021.433655 
	C334.708099,1021.337952 330.943634,1022.131897 327.186340,1022.511414 
	C325.192322,1022.712830 323.194275,1023.008972 321.196838,1023.018738 
	C313.358765,1023.057068 305.517548,1023.116882 297.682617,1022.940186 
	C290.899170,1022.787231 284.122284,1022.062805 277.343170,1022.072144 
	C270.230194,1022.082031 263.116608,1022.958374 256.005768,1022.925110 
	C246.299011,1022.879761 236.595230,1022.096924 226.889023,1022.071472 
	C218.505600,1022.049500 210.122253,1022.716187 201.734985,1022.911682 
	C199.790863,1022.957031 197.829300,1022.041565 195.878510,1022.052612 
	C187.251053,1022.101501 178.624542,1022.325134 169.997879,1022.493958 
	C169.512497,1022.503418 168.855408,1022.819275 168.569687,1022.604614 
	C163.278381,1018.629333 157.345398,1021.591675 151.291077,1020.990845 
	C150.733292,1020.001099 150.554245,1019.013123 150.554413,1018.025146 
	C150.574387,900.320129 150.607635,782.615051 150.763458,664.454712 
z"/>
<path fill="#0C25C7" opacity="1.000000" stroke="none" 
	d="
M1189.998291,153.082397 
	C1189.695312,157.352951 1186.802979,157.828674 1183.625244,158.001389 
	C1176.293579,158.399841 1168.964600,158.846069 1161.635376,159.288055 
	C1160.677490,159.345840 1159.139404,159.917450 1158.860229,159.532761 
	C1155.999634,155.588715 1152.409424,157.803284 1148.892578,157.848969 
	C1140.601196,157.956604 1132.302368,157.249420 1124.005371,157.222626 
	C1115.107178,157.193878 1106.203735,157.466019 1097.309814,157.797729 
	C1090.927856,158.035782 1084.558228,158.877151 1078.181885,158.890259 
	C1074.395264,158.898041 1070.091309,161.283875 1066.751709,157.206284 
	C1066.363892,156.732605 1064.843994,157.126678 1063.857300,157.214447 
	C1061.227295,157.448349 1058.595215,158.011047 1055.975830,157.948303 
	C1048.036255,157.758133 1040.104858,157.156235 1032.165649,157.045776 
	C1022.244202,156.907715 1012.310547,156.881363 1002.396973,157.228577 
	C996.334045,157.440918 990.307190,158.553513 984.245544,159.020020 
	C982.673096,159.141022 981.021423,158.388977 979.424011,157.970032 
	C978.486511,157.724182 977.576721,157.047791 976.667114,157.070511 
	C967.186584,157.307281 957.709778,157.835846 948.229675,157.890442 
	C942.002380,157.926300 935.755371,156.872650 929.545593,157.095978 
	C917.913391,157.514297 906.301575,158.503983 894.681702,159.261505 
	C893.882141,159.313614 892.639221,159.776154 892.356934,159.430893 
	C889.684814,156.163559 886.431885,157.658051 883.202576,157.940491 
	C877.622559,158.428543 872.000671,158.974487 866.419434,158.791443 
	C857.211243,158.489426 848.025818,157.542603 838.820801,157.056015 
	C836.377319,156.926849 833.882874,157.749695 831.440674,157.614548 
	C830.253174,157.548874 829.132141,156.282379 827.947937,155.148224 
	C828.112427,154.482224 828.309937,154.227478 828.982300,154.257187 
	C831.308411,153.638168 833.159729,152.734711 835.011108,151.831238 
	C835.385681,151.505127 835.760254,151.179031 836.802551,150.856186 
	C838.020325,150.338654 838.570374,149.817856 839.120361,149.297089 
	C842.167542,147.357666 845.140747,145.288528 848.274414,143.500870 
	C863.269836,134.946564 878.395020,126.616508 893.309509,117.924370 
	C910.366821,107.983391 927.194946,97.649628 944.231506,87.672523 
	C953.721191,82.115120 963.389771,76.857468 973.056763,71.610474 
	C981.217651,67.180931 989.427551,62.831287 997.733398,58.681980 
	C1008.054810,53.525784 1018.340881,55.996651 1027.758667,60.677841 
	C1041.255615,67.386650 1054.255371,75.112518 1067.350708,82.608154 
	C1083.394043,91.791260 1099.311523,101.193916 1115.293457,110.484291 
	C1124.895508,116.066071 1134.483398,121.673424 1144.140869,127.158134 
	C1150.738159,130.904861 1157.477295,134.401260 1164.093750,138.114853 
	C1172.707153,142.949249 1181.262085,147.887863 1189.998291,153.082397 
z"/>
<path fill="#000BBD" opacity="1.000000" stroke="none" 
	d="
M1865.004883,1001.004883 
	C1865.375366,1001.011597 1865.745850,1001.018250 1866.394165,1001.020142 
	C1866.741211,1002.009033 1866.870850,1003.002625 1866.870850,1003.996216 
	C1866.870117,1140.766113 1866.859985,1277.536133 1866.760254,1414.712402 
	C1866.113525,1412.864136 1865.071045,1410.609741 1865.069702,1408.354980 
	C1864.992798,1281.382202 1865.002808,1154.409302 1865.004150,1027.436523 
	C1865.004150,1026.270142 1865.003418,1025.103638 1865.001465,1023.000061 
	C1865.001587,1015.043518 1865.003174,1008.024231 1865.004883,1001.004883 
z"/>
<path fill="#0619C0" opacity="1.000000" stroke="none" 
	d="
M834.639160,151.864609 
	C833.159729,152.734711 831.308411,153.638168 829.233276,154.276215 
	C830.762024,153.306519 832.514648,152.602249 834.639160,151.864609 
z"/>
<path fill="#0619C0" opacity="1.000000" stroke="none" 
	d="
M838.728210,149.301483 
	C838.570374,149.817856 838.020325,150.338654 837.064453,150.877045 
	C837.217773,150.365067 837.776917,149.835495 838.728210,149.301483 
z"/>
<path fill="#FEFEFF" opacity="1.000000" stroke="none" 
	d="
M352.837158,755.873230 
	C353.354340,738.428589 353.819641,720.982178 354.406769,703.539917 
	C354.809784,691.568420 355.353821,679.601379 355.919739,667.636353 
	C355.980072,666.361206 356.610260,665.112976 357.048828,663.447937 
	C369.196259,652.043823 384.036011,645.535278 398.065002,637.680603 
	C406.521088,632.946167 414.636505,627.606567 422.958710,622.628662 
	C430.615051,618.049072 438.311035,613.533508 446.046173,609.088318 
	C464.530579,598.465698 483.058838,587.919495 501.548798,577.306458 
	C513.082153,570.686401 524.557068,563.964539 536.096680,557.355591 
	C546.878845,551.180420 557.760681,545.178101 568.507629,538.942871 
	C577.643433,533.642395 586.599243,528.032288 595.722900,522.710388 
	C617.127869,510.224640 638.554993,497.776367 660.029175,485.410217 
	C691.285767,467.410797 722.574524,449.467224 753.884033,431.559906 
	C768.231567,423.353912 782.704834,415.367462 797.040833,407.141541 
	C811.265442,398.979523 825.307922,390.498169 839.577515,382.416931 
	C857.946167,372.014252 876.553772,362.032379 894.887573,351.569763 
	C913.220337,341.107697 931.264709,330.140717 949.581726,319.650421 
	C963.875427,311.464264 978.151550,303.173645 992.940125,295.964630 
	C998.242188,293.380096 1004.991638,293.375214 1011.131409,292.977051 
	C1025.475830,292.046722 1035.502441,301.802368 1046.866699,308.158936 
	C1055.576660,313.030853 1064.235596,317.997833 1072.833252,323.065125 
	C1080.156738,327.381439 1087.303833,331.997192 1094.633789,336.302277 
	C1101.300171,340.217682 1108.135132,343.845154 1114.847046,347.684662 
	C1128.332153,355.398712 1141.768188,363.198395 1155.254517,370.910522 
	C1167.237915,377.763306 1179.322266,384.441772 1191.250610,391.388489 
	C1202.870728,398.155731 1214.253784,405.332642 1225.915527,412.025452 
	C1239.715820,419.945618 1253.771973,427.419495 1267.583618,435.320526 
	C1276.008545,440.139984 1284.113403,445.515594 1292.483398,450.434906 
	C1305.256592,457.942047 1318.136963,465.266846 1330.968018,472.675537 
	C1353.756470,485.833618 1376.531860,499.014282 1399.332520,512.151123 
	C1414.223755,520.730896 1429.200317,529.163208 1444.046753,537.819336 
	C1460.383301,547.344116 1476.564941,557.134766 1492.906006,566.651733 
	C1508.220459,575.570862 1523.662354,584.270935 1539.034912,593.090393 
	C1558.983765,604.535217 1578.908325,616.022217 1598.865234,627.452881 
	C1609.968750,633.812683 1621.112183,640.102844 1632.246094,646.409241 
	C1640.100708,650.858154 1648.005981,655.219177 1655.803345,659.765869 
	C1657.461914,660.733032 1658.750122,662.334900 1660.524292,664.278564 
	C1661.983887,675.278259 1663.749878,685.620117 1664.146851,696.014282 
	C1665.047607,719.600098 1665.656982,743.210876 1665.706299,766.812866 
	C1665.879517,849.885620 1665.764648,932.958984 1665.772217,1016.032104 
	C1665.772339,1018.021484 1665.926636,1020.010925 1666.009033,1022.000305 
	C1665.930786,1023.992859 1665.785278,1025.985352 1665.784180,1027.977905 
	C1665.737915,1108.137207 1665.787476,1188.296875 1665.606445,1268.455811 
	C1665.566284,1286.270020 1664.837280,1304.086670 1664.197021,1321.893921 
	C1663.857788,1331.324341 1663.654541,1340.841919 1662.108521,1350.106323 
	C1661.494751,1353.784546 1658.100342,1357.984375 1654.789185,1360.057983 
	C1639.877075,1369.396118 1624.521362,1378.023804 1609.364624,1386.973755 
	C1600.591187,1392.154419 1591.958618,1397.575928 1583.142212,1402.680908 
	C1572.640747,1408.761475 1561.974976,1414.557251 1551.445923,1420.590698 
	C1541.613892,1426.224609 1531.856567,1431.989502 1522.085693,1437.729858 
	C1502.382324,1449.305176 1482.721680,1460.953491 1462.987305,1472.475952 
	C1445.933594,1482.433228 1428.716553,1492.112915 1411.730835,1502.183716 
	C1396.735962,1511.074097 1382.040039,1520.468506 1367.051514,1529.369873 
	C1360.715698,1533.132568 1353.836060,1535.971436 1347.436646,1539.636963 
	C1335.729492,1546.342773 1324.268677,1553.478149 1312.571777,1560.202393 
	C1296.186279,1569.622559 1279.596313,1578.688599 1263.247925,1588.171631 
	C1248.777466,1596.565308 1234.488770,1605.274414 1220.191162,1613.961548 
	C1217.613647,1615.527832 1215.486328,1617.827637 1212.934204,1619.446777 
	C1212.015381,1620.029907 1210.305542,1619.999512 1209.218872,1619.576172 
	C1204.472412,1617.726562 1203.431396,1613.863770 1203.427979,1609.102539 
	C1203.399048,1568.795288 1203.140991,1528.488037 1203.125244,1488.180786 
	C1203.077759,1366.025024 1203.108398,1243.869263 1203.108643,1121.713501 
	C1203.108643,1120.555542 1203.108643,1119.397461 1203.108643,1116.467041 
	C1198.169922,1119.254150 1194.046997,1121.527100 1189.976440,1123.890259 
	C1183.197876,1127.825439 1176.483276,1131.871460 1169.686401,1135.774414 
	C1160.039917,1141.313721 1150.335571,1146.752441 1140.670166,1152.259033 
	C1133.384766,1156.409668 1126.118164,1160.593628 1118.848999,1164.772827 
	C1104.169922,1173.212402 1089.528564,1181.718506 1074.806274,1190.081787 
	C1064.770264,1195.782837 1054.583252,1201.217773 1044.540039,1206.906250 
	C1037.993530,1210.614258 1031.176880,1214.024414 1025.206787,1218.529663 
	C1016.028748,1225.455933 1007.124695,1224.964111 997.737549,1219.600220 
	C975.758179,1207.041016 953.782227,1194.475708 931.777161,1181.961670 
	C923.963257,1177.517944 915.993713,1173.344482 908.227905,1168.819946 
	C894.790894,1160.991211 881.523865,1152.869751 868.062988,1145.082886 
	C852.747437,1136.223267 837.297546,1127.596069 820.819153,1118.251343 
	C820.819153,1121.315063 820.819153,1123.369995 820.819153,1125.424805 
	C820.819153,1260.912720 820.890503,1396.400635 820.749573,1531.888306 
	C820.725708,1554.828613 819.774109,1577.767700 819.286072,1600.707886 
	C819.196289,1604.929443 819.667664,1609.202148 819.162415,1613.364258 
	C818.684692,1617.299683 816.136353,1618.380249 811.942078,1617.801880 
	C801.126648,1616.310913 793.403076,1608.890381 784.262817,1604.224121 
	C775.413208,1599.706177 766.580566,1595.133789 757.942505,1590.229370 
	C750.264343,1585.869873 742.909729,1580.944702 735.327637,1576.410645 
	C725.745422,1570.680420 716.113098,1565.031372 706.437927,1559.459351 
	C691.595154,1550.911011 676.685181,1542.479614 661.827087,1533.957886 
	C650.425537,1527.418457 638.980591,1520.949341 627.700562,1514.205444 
	C615.806519,1507.094482 604.152161,1499.583252 592.269348,1492.453247 
	C581.146851,1485.779419 569.829102,1479.431885 558.657471,1472.838745 
	C544.831970,1464.679321 531.125977,1456.316284 517.263123,1448.221558 
	C501.084869,1438.774658 484.806885,1429.498169 468.545807,1420.193726 
	C455.649078,1412.814453 442.685791,1405.551147 429.808990,1398.137451 
	C425.575653,1395.700195 421.584412,1392.844604 417.370880,1390.370239 
	C407.045258,1384.306030 396.585266,1378.468628 386.311646,1372.318970 
	C377.761719,1367.200928 369.436310,1361.709229 360.938873,1356.501587 
	C356.821838,1353.978516 356.043518,1349.968628 355.916290,1345.772461 
	C354.917206,1312.821289 354.008606,1279.867188 353.063721,1245.993652 
	C353.064453,1208.346924 353.089417,1171.620728 353.072876,1134.894409 
	C353.068054,1124.264771 352.944122,1113.635132 352.874786,1103.005493 
	C352.939636,1102.555542 353.004486,1102.105591 353.050232,1101.077881 
	C352.979065,1100.335083 352.927032,1100.170044 352.875061,1100.005127 
	C352.941101,1098.282227 353.007172,1096.559448 353.065002,1093.979248 
	C352.995514,1090.749756 352.934265,1088.377686 352.873047,1086.005493 
	C352.937653,1085.555420 353.002258,1085.105469 353.061096,1083.864380 
	C352.989502,1057.384033 352.923676,1031.694824 352.955017,1005.545349 
	C353.057648,948.812500 353.087921,892.539795 353.057831,836.267151 
	C353.043488,809.469177 352.914307,782.671204 352.837158,755.873230 
M663.982361,1015.500000 
	C664.195374,957.650940 663.110413,899.785339 665.713440,841.224304 
	C669.830322,842.928528 673.471863,844.016113 676.689880,845.847778 
	C685.949463,851.118408 694.996582,856.760498 704.203918,862.125061 
	C716.460754,869.266541 728.792053,876.280151 741.087402,883.355652 
	C748.679871,887.724854 756.323120,892.009583 763.840576,896.504578 
	C777.172913,904.476562 790.350708,912.709106 803.736938,920.588196 
	C815.069946,927.258606 826.652039,933.504517 838.036438,940.089355 
	C845.585083,944.455566 852.913208,949.202759 860.458130,953.575623 
	C872.806946,960.732666 885.306213,967.630371 897.639099,974.814270 
	C907.454956,980.532104 917.014709,986.692932 926.877747,992.325195 
	C935.686829,997.355591 944.817993,1001.819092 953.686523,1006.749573 
	C959.283203,1009.860962 964.423950,1013.865173 970.182983,1016.596130 
	C981.119995,1021.782410 990.586609,1029.695312 1002.737427,1032.735962 
	C1015.389771,1035.901855 1026.814453,1035.057495 1037.712402,1027.413452 
	C1044.158936,1022.891663 1051.075684,1019.016418 1057.915161,1015.083801 
	C1069.359375,1008.503540 1080.970337,1002.212952 1092.403931,995.614807 
	C1111.935059,984.343933 1131.339111,972.853027 1150.887939,961.613220 
	C1158.693237,957.125427 1166.811768,953.184814 1174.660522,948.769287 
	C1184.569702,943.194641 1194.318115,937.334961 1204.196777,931.705200 
	C1209.326538,928.781860 1214.666992,926.225586 1219.773315,923.263977 
	C1231.624023,916.390503 1243.340820,909.285461 1255.214600,902.452759 
	C1260.194580,899.586975 1265.538086,897.355469 1270.536865,894.519470 
	C1285.541138,886.006958 1300.487793,877.391418 1315.391724,868.704102 
	C1321.063843,865.397949 1326.406494,861.505798 1332.174316,858.390198 
	C1338.621216,854.908020 1344.972778,850.703552 1353.127563,851.490662 
	C1353.292969,852.723206 1353.515259,853.678711 1353.536133,854.638611 
	C1353.997925,875.939514 1354.752930,897.239929 1354.821045,918.542480 
	C1355.009521,977.538635 1354.919800,1036.535645 1354.921997,1095.532349 
	C1354.925171,1180.360962 1354.872437,1265.189575 1354.958740,1350.018188 
	C1354.969116,1360.310913 1356.028076,1370.604736 1355.971069,1380.894653 
	C1355.930542,1388.200317 1359.992554,1397.135742 1366.490112,1400.017822 
	C1368.651367,1400.976562 1372.057739,1401.096313 1374.081543,1400.040405 
	C1381.149658,1396.352539 1387.778198,1391.834229 1394.731323,1387.910767 
	C1402.981445,1383.255859 1411.457397,1379.002441 1419.721436,1374.371338 
	C1431.057251,1368.018799 1442.255981,1361.421997 1453.567505,1355.025635 
	C1468.744995,1346.443237 1483.958496,1337.923828 1499.186157,1329.430542 
	C1512.218018,1322.162109 1525.335327,1315.045898 1538.316895,1307.689331 
	C1541.668945,1305.789795 1545.953247,1303.918579 1547.548340,1300.856567 
	C1551.394409,1293.473511 1556.121460,1286.470337 1555.214355,1276.964478 
	C1554.274414,1267.111328 1556.028687,1257.032959 1556.033081,1247.052979 
	C1556.100220,1096.894653 1556.073730,946.736389 1556.066162,796.578064 
	C1556.065308,780.749268 1556.041992,764.920471 1556.034912,749.091675 
	C1556.028564,734.883667 1550.654907,723.416016 1538.654419,715.443298 
	C1536.328979,713.898376 1533.598389,712.976990 1531.188477,711.543213 
	C1513.321899,700.913330 1495.566284,690.094971 1477.619751,679.602539 
	C1464.917969,672.176453 1451.933472,665.236145 1439.145996,657.954468 
	C1423.412720,648.995422 1407.739502,639.930725 1392.066772,630.866028 
	C1381.671143,624.853577 1371.299194,618.799622 1360.959351,612.692017 
	C1353.185181,608.099915 1345.517334,603.327332 1337.734131,598.750916 
	C1322.074341,589.543213 1306.351685,580.442383 1290.687500,571.242126 
	C1282.050049,566.169006 1273.534302,560.887512 1264.863647,555.872559 
	C1253.657471,549.390991 1242.322388,543.132202 1231.096191,536.684631 
	C1219.339966,529.932495 1207.664307,523.039734 1195.919800,516.266907 
	C1188.103760,511.759491 1180.166992,507.458771 1172.394531,502.878693 
	C1161.679810,496.564880 1151.135498,489.961060 1140.395508,483.691681 
	C1129.417114,477.283173 1118.229736,471.232483 1107.245239,464.833984 
	C1095.981934,458.273071 1084.883911,451.428802 1073.656738,444.804993 
	C1063.619385,438.883087 1053.514771,433.074860 1043.420410,427.249908 
	C1035.854370,422.883881 1028.694336,416.563171 1020.553162,414.792877 
	C1012.228943,412.982849 1002.259155,413.836639 994.213013,416.795929 
	C982.037537,421.273895 970.762146,428.333618 959.366882,434.761749 
	C947.488586,441.462372 935.954590,448.770905 924.206116,455.705383 
	C917.006165,459.955078 909.724976,464.071899 902.405945,468.113892 
	C897.570374,470.784424 892.424133,472.927582 887.739868,475.828308 
	C881.934021,479.423645 876.698914,483.969208 870.794861,487.371307 
	C859.617798,493.811951 848.037598,499.550171 836.814514,505.914520 
	C825.072205,512.573303 813.591003,519.690735 801.925781,526.487732 
	C789.241455,533.878540 776.441345,541.070801 763.757385,548.462158 
	C752.528870,555.005371 741.451050,561.807983 730.192261,568.297607 
	C721.960022,573.042603 713.464050,577.329529 705.225342,582.063660 
	C692.343872,589.465637 679.559875,597.038147 666.773193,604.603760 
	C654.021362,612.148743 641.381042,619.883972 628.574097,627.333496 
	C615.410706,634.990295 602.135681,642.457214 588.850159,649.901306 
	C580.700745,654.467529 572.319641,658.629700 564.263062,663.349548 
	C556.382996,667.966064 548.912415,673.282410 541.025208,677.885620 
	C532.123474,683.080933 522.881836,687.690613 513.925354,692.795837 
	C502.318817,699.411682 490.722992,706.063843 479.371155,713.101379 
	C473.632080,716.659241 467.515717,720.834839 466.890381,728.249390 
	C465.543671,744.217163 464.241119,760.246399 464.175995,776.255554 
	C463.553436,929.236938 463.202209,1082.219360 462.725281,1235.201416 
	C462.705597,1241.510376 461.949066,1247.819946 461.998230,1254.125488 
	C462.089111,1265.789307 461.831879,1277.522949 463.042511,1289.088867 
	C463.937012,1297.634521 469.924286,1303.571899 477.502869,1307.630371 
	C487.696167,1313.088989 497.970123,1318.407593 508.023651,1324.113525 
	C519.167725,1330.438477 530.049133,1337.224609 541.146423,1343.634033 
	C548.531494,1347.899292 556.122498,1351.806274 563.570190,1355.965210 
	C571.622925,1360.462158 579.644348,1365.017212 587.629456,1369.633179 
	C603.881958,1379.028564 620.047058,1388.576538 636.355652,1397.873291 
	C645.115295,1402.866699 654.097534,1407.469604 663.982300,1412.788452 
	C663.982300,1280.774536 663.982300,1148.637207 663.982361,1015.500000 
z"/>
<path fill="#0A22C7" opacity="1.000000" stroke="none" 
	d="
M1666.382812,1021.958984 
	C1665.926636,1020.010925 1665.772339,1018.021484 1665.772217,1016.032104 
	C1665.764648,932.958984 1665.879517,849.885620 1665.706299,766.812866 
	C1665.656982,743.210876 1665.047607,719.600098 1664.146851,696.014282 
	C1663.749878,685.620117 1661.983887,675.278259 1660.749146,664.519348 
	C1672.905396,664.037842 1685.153564,664.031677 1697.398560,663.835083 
	C1706.850586,663.683411 1716.297974,663.108887 1725.749146,663.061035 
	C1734.963135,663.014404 1744.179199,663.538757 1753.394531,663.549255 
	C1761.299927,663.558228 1769.208008,662.971191 1777.110718,663.051941 
	C1787.696533,663.160095 1798.281616,663.984619 1808.860962,663.882385 
	C1816.935913,663.804382 1824.993164,662.506531 1833.074341,662.241028 
	C1838.618042,662.058960 1844.186768,662.811096 1849.749268,662.971497 
	C1854.525757,663.109192 1859.309570,663.000000 1865.000000,663.000000 
	C1865.000000,774.963928 1865.000000,887.515198 1865.002441,1000.535645 
	C1865.003174,1008.024231 1865.001587,1015.043518 1865.000000,1022.531433 
	C1859.588013,1022.469971 1854.175781,1021.940979 1848.764404,1021.404480 
	C1848.604492,1021.388672 1848.422607,1021.206543 1848.301025,1021.248169 
	C1839.194214,1024.369019 1829.924316,1023.409668 1820.575806,1022.750549 
	C1812.249878,1022.163513 1803.863892,1022.428223 1795.504395,1022.315796 
	C1790.767700,1022.252014 1786.028320,1022.058655 1781.295410,1022.163208 
	C1777.834351,1022.239807 1774.381470,1022.955811 1770.926025,1022.948120 
	C1763.725220,1022.932068 1756.522217,1022.408997 1749.325195,1022.499268 
	C1742.293091,1022.587402 1735.262207,1023.550171 1728.239868,1023.456360 
	C1719.595947,1023.340942 1710.964722,1022.199951 1702.321655,1022.109985 
	C1693.601440,1022.019226 1684.875488,1022.795898 1676.147827,1022.934204 
	C1673.023682,1022.983704 1669.887573,1022.278503 1666.382812,1021.958984 
z"/>
<path fill="#0111BE" opacity="1.000000" stroke="none" 
	d="
M352.488342,1103.107910 
	C352.944122,1113.635132 353.068054,1124.264771 353.072876,1134.894409 
	C353.089417,1171.620728 353.064453,1208.346924 352.964355,1245.533936 
	C352.248962,1244.672363 351.081482,1243.351440 351.078705,1242.028076 
	C350.984283,1196.942749 350.991882,1151.857422 351.046570,1106.771973 
	C351.048004,1105.584473 351.734772,1104.397583 352.488342,1103.107910 
z"/>
<path fill="#0111BE" opacity="1.000000" stroke="none" 
	d="
M352.857819,1006.005615 
	C352.923676,1031.694824 352.989502,1057.384033 352.963806,1083.533936 
	C352.248169,1082.349121 351.092957,1080.707520 351.081390,1079.057983 
	C350.952667,1060.685181 351.000702,1042.311035 350.999939,1023.468628 
	C350.999603,1017.645081 351.000458,1012.290100 351.311096,1006.468811 
	C352.033173,1006.003479 352.445496,1006.004517 352.857819,1006.005615 
z"/>
<path fill="#0111BE" opacity="1.000000" stroke="none" 
	d="
M352.504150,1086.097168 
	C352.934265,1088.377686 352.995514,1090.749756 352.965759,1093.558228 
	C349.522644,1091.686890 350.648376,1088.955078 352.504150,1086.097168 
z"/>
<path fill="#0111BE" opacity="1.000000" stroke="none" 
	d="
M352.636871,1100.023682 
	C352.927032,1100.170044 352.979065,1100.335083 352.953064,1100.747437 
	C352.466949,1100.831299 352.058899,1100.667847 351.650818,1100.504272 
	C351.900116,1100.350342 352.149414,1100.196289 352.636871,1100.023682 
z"/>
<path fill="#0619C0" opacity="1.000000" stroke="none" 
	d="
M352.955017,1005.545410 
	C352.445496,1006.004517 352.033173,1006.003479 351.311646,1006.001221 
	C351.002045,924.646606 350.995148,843.293274 351.040985,761.939880 
	C351.042053,760.037170 351.635437,758.134888 352.394836,756.052795 
	C352.914307,782.671204 353.043488,809.469177 353.057831,836.267151 
	C353.087921,892.539795 353.057648,948.812500 352.955017,1005.545410 
z"/>
<path fill="#1744E0" opacity="1.000000" stroke="none" 
	d="
M663.982300,1016.000000 
	C663.982300,1148.637207 663.982300,1280.774536 663.982300,1412.788452 
	C654.097534,1407.469604 645.115295,1402.866699 636.355652,1397.873291 
	C620.047058,1388.576538 603.881958,1379.028564 587.629456,1369.633179 
	C579.644348,1365.017212 571.622925,1360.462158 563.570190,1355.965210 
	C556.122498,1351.806274 548.531494,1347.899292 541.146423,1343.634033 
	C530.049133,1337.224609 519.167725,1330.438477 508.023651,1324.113525 
	C497.970123,1318.407593 487.696167,1313.088989 477.502869,1307.630371 
	C469.924286,1303.571899 463.937012,1297.634521 463.042511,1289.088867 
	C461.831879,1277.522949 462.089111,1265.789307 461.998230,1254.125488 
	C461.949066,1247.819946 462.705597,1241.510376 462.725281,1235.201416 
	C463.202209,1082.219360 463.553436,929.236938 464.175995,776.255554 
	C464.241119,760.246399 465.543671,744.217163 466.890381,728.249390 
	C467.515717,720.834839 473.632080,716.659241 479.371155,713.101379 
	C490.722992,706.063843 502.318817,699.411682 513.925354,692.795837 
	C522.881836,687.690613 532.123474,683.080933 541.025208,677.885620 
	C548.912415,673.282410 556.382996,667.966064 564.263062,663.349548 
	C572.319641,658.629700 580.700745,654.467529 588.850159,649.901306 
	C602.135681,642.457214 615.410706,634.990295 628.574097,627.333496 
	C641.381042,619.883972 654.021362,612.148743 666.773193,604.603760 
	C679.559875,597.038147 692.343872,589.465637 705.225342,582.063660 
	C713.464050,577.329529 721.960022,573.042603 730.192261,568.297607 
	C741.451050,561.807983 752.528870,555.005371 763.757385,548.462158 
	C776.441345,541.070801 789.241455,533.878540 801.925781,526.487732 
	C813.591003,519.690735 825.072205,512.573303 836.814514,505.914520 
	C848.037598,499.550171 859.617798,493.811951 870.794861,487.371307 
	C876.698914,483.969208 881.934021,479.423645 887.739868,475.828308 
	C892.424133,472.927582 897.570374,470.784424 902.405945,468.113892 
	C909.724976,464.071899 917.006165,459.955078 924.206116,455.705383 
	C935.954590,448.770905 947.488586,441.462372 959.366882,434.761749 
	C970.762146,428.333618 982.037537,421.273895 994.213013,416.795929 
	C1002.259155,413.836639 1012.228943,412.982849 1020.553162,414.792877 
	C1028.694336,416.563171 1035.854370,422.883881 1043.420410,427.249908 
	C1053.514771,433.074860 1063.619385,438.883087 1073.656738,444.804993 
	C1084.883911,451.428802 1095.981934,458.273071 1107.245239,464.833984 
	C1118.229736,471.232483 1129.417114,477.283173 1140.395508,483.691681 
	C1151.135498,489.961060 1161.679810,496.564880 1172.394531,502.878693 
	C1180.166992,507.458771 1188.103760,511.759491 1195.919800,516.266907 
	C1207.664307,523.039734 1219.339966,529.932495 1231.096191,536.684631 
	C1242.322388,543.132202 1253.657471,549.390991 1264.863647,555.872559 
	C1273.534302,560.887512 1282.050049,566.169006 1290.687500,571.242126 
	C1306.351685,580.442383 1322.074341,589.543213 1337.734131,598.750916 
	C1345.517334,603.327332 1353.185181,608.099915 1360.959351,612.692017 
	C1371.299194,618.799622 1381.671143,624.853577 1392.066772,630.866028 
	C1407.739502,639.930725 1423.412720,648.995422 1439.145996,657.954468 
	C1451.933472,665.236145 1464.917969,672.176453 1477.619751,679.602539 
	C1495.566284,690.094971 1513.321899,700.913330 1531.188477,711.543213 
	C1533.598389,712.976990 1536.328979,713.898376 1538.654419,715.443298 
	C1550.654907,723.416016 1556.028564,734.883667 1556.034912,749.091675 
	C1556.041992,764.920471 1556.065308,780.749268 1556.066162,796.578064 
	C1556.073730,946.736389 1556.100220,1096.894653 1556.033081,1247.052979 
	C1556.028687,1257.032959 1554.274414,1267.111328 1555.214355,1276.964478 
	C1556.121460,1286.470337 1551.394409,1293.473511 1547.548340,1300.856567 
	C1545.953247,1303.918579 1541.668945,1305.789795 1538.316895,1307.689331 
	C1525.335327,1315.045898 1512.218018,1322.162109 1499.186157,1329.430542 
	C1483.958496,1337.923828 1468.744995,1346.443237 1453.567505,1355.025635 
	C1442.255981,1361.421997 1431.057251,1368.018799 1419.721436,1374.371338 
	C1411.457397,1379.002441 1402.981445,1383.255859 1394.731323,1387.910767 
	C1387.778198,1391.834229 1381.149658,1396.352539 1374.081543,1400.040405 
	C1372.057739,1401.096313 1368.651367,1400.976562 1366.490112,1400.017822 
	C1359.992554,1397.135742 1355.930542,1388.200317 1355.971069,1380.894653 
	C1356.028076,1370.604736 1354.969116,1360.310913 1354.958740,1350.018188 
	C1354.872437,1265.189575 1354.925171,1180.360962 1354.921997,1095.532349 
	C1354.919800,1036.535645 1355.009521,977.538635 1354.821045,918.542480 
	C1354.752930,897.239929 1353.997925,875.939514 1353.536133,854.638611 
	C1353.515259,853.678711 1353.292969,852.723206 1353.127563,851.490662 
	C1344.972778,850.703552 1338.621216,854.908020 1332.174316,858.390198 
	C1326.406494,861.505798 1321.063843,865.397949 1315.391724,868.704102 
	C1300.487793,877.391418 1285.541138,886.006958 1270.536865,894.519470 
	C1265.538086,897.355469 1260.194580,899.586975 1255.214600,902.452759 
	C1243.340820,909.285461 1231.624023,916.390503 1219.773315,923.263977 
	C1214.666992,926.225586 1209.326538,928.781860 1204.196777,931.705200 
	C1194.318115,937.334961 1184.569702,943.194641 1174.660522,948.769287 
	C1166.811768,953.184814 1158.693237,957.125427 1150.887939,961.613220 
	C1131.339111,972.853027 1111.935059,984.343933 1092.403931,995.614807 
	C1080.970337,1002.212952 1069.359375,1008.503540 1057.915161,1015.083801 
	C1051.075684,1019.016418 1044.158936,1022.891663 1037.712402,1027.413452 
	C1026.814453,1035.057495 1015.389771,1035.901855 1002.737427,1032.735962 
	C990.586609,1029.695312 981.119995,1021.782410 970.182983,1016.596130 
	C964.423950,1013.865173 959.283203,1009.860962 953.686523,1006.749573 
	C944.817993,1001.819092 935.686829,997.355591 926.877747,992.325195 
	C917.014709,986.692932 907.454956,980.532104 897.639099,974.814270 
	C885.306213,967.630371 872.806946,960.732666 860.458130,953.575623 
	C852.913208,949.202759 845.585083,944.455566 838.036438,940.089355 
	C826.652039,933.504517 815.069946,927.258606 803.736938,920.588196 
	C790.350708,912.709106 777.172913,904.476562 763.840576,896.504578 
	C756.323120,892.009583 748.679871,887.724854 741.087402,883.355652 
	C728.792053,876.280151 716.460754,869.266541 704.203918,862.125061 
	C694.996582,856.760498 685.949463,851.118408 676.689880,845.847778 
	C673.471863,844.016113 669.830322,842.928528 665.713440,841.224304 
	C663.110413,899.785339 664.195374,957.650940 663.982300,1016.000000 
z"/>
</svg>